<svg width="3099" height="1889" xmlns="http://www.w3.org/2000/svg" xmlns:xlink="http://www.w3.org/1999/xlink" xml:space="preserve" overflow="hidden"><defs><clipPath id="clip0"><rect x="1185" y="271" width="3099" height="1889"/></clipPath></defs><g clip-path="url(#clip0)" transform="translate(-1185 -271)"><path d="M2734.5 418.585 2807.18 422.211 2876.1 429.612 2944.87 440.791 3013.79 455.444 3078.8 473.873 3143.8 496.079 3208.81 521.91 3270.06 547.741 3331.31 577.198 3388.64 606.805 3495.78 673.12 3599.16 743.212 3687.04 813.304 3763.64 875.994 3832.4 938.834 3893.65 997.748 3947.22 1053.19 4035.25 1149.11 4092.58 1215.42 4035.25 1281.89 3947.22 1377.81 3893.65 1433.1 3832.4 1492.17 3763.64 1554.86 3687.04 1617.7 3599.16 1687.79 3495.78 1757.88 3388.64 1824.19 3331.31 1853.8 3270.06 1883.26 3208.81 1909.09 3143.8 1934.92 3078.8 1956.98 3013.79 1975.56 2944.87 1990.21 2876.1 2001.39 2807.18 2008.64 2734.5 2012.42 2669.49 2012.42 2608.25 2005.01 2547 1997.61 2485.75 1982.81 2424.66 1968.15 2363.42 1949.73 2306.08 1931.14 2248.6 1909.09 2195.03 1883.26 2137.69 1857.43 2034.47 1798.36 1935 1735.67 1843.05 1665.58 1755.18 1599.12 1674.82 1529.02 1602.14 1462.71 1540.89 1400.02 1437.66 1289.29 1376.42 1215.42 1437.66 1141.71 1540.89 1030.98 1602.14 968.291 1674.82 901.825 1755.18 831.733 1843.05 765.418 1935 698.952 2034.47 632.637 2137.69 573.572 2195.03 547.741 2248.6 521.91 2306.08 499.704 2363.42 481.275 2424.66 462.846 2485.75 448.042 2547 433.389 2608.25 425.987 2669.49 418.585ZM2734.5 271 2658.06 274.776 2581.46 282.027 2508.78 293.206 2432.34 307.858 2363.42 326.288 2290.73 348.493 2221.81 374.325 2156.81 403.781 2088.04 433.389 2026.79 466.622 1961.79 503.481 1904.3 540.339 1789.64 617.833 1682.49 698.952 1586.79 780.071 1502.67 857.564 1426.07 931.432 1364.98 1001.52 1273.03 1104.85 1234.81 1152.73 1185.16 1215.42 1234.81 1278.27 1273.03 1326.15 1364.98 1429.48 1426.07 1499.57 1502.67 1573.28 1586.79 1650.78 1682.49 1732.05 1789.64 1813.17 1904.3 1890.66 1961.79 1927.52 2026.79 1964.38 2088.04 1997.61 2156.81 2027.07 2221.81 2056.68 2290.73 2082.51 2363.42 2104.56 2432.34 2122.99 2508.78 2137.79 2581.46 2148.82 2658.06 2156.22 2734.5 2160 2810.94 2156.22 2887.54 2148.82 2960.22 2137.79 3036.66 2122.99 3105.58 2104.56 3178.27 2082.51 3247.19 2056.68 3312.19 2027.07 3380.96 1997.61 3442.21 1964.38 3507.21 1927.52 3564.7 1890.66 3679.36 1813.17 3786.51 1732.05 3882.21 1650.78 3966.33 1573.28 4042.93 1499.57 4104.02 1429.48 4195.97 1326.15 4234.19 1278.27 4283.84 1215.42 4234.19 1152.73 4195.97 1104.85 4104.02 1001.52 4042.93 931.432 3966.33 857.564 3882.21 780.071 3786.51 698.952 3679.36 617.833 3564.7 540.339 3507.21 503.481 3442.21 466.622 3380.96 433.389 3312.19 403.781 3247.19 374.325 3178.27 348.493 3105.58 326.288 3036.66 307.858 2960.22 293.206 2887.54 282.027 2810.94 274.776 2734.5 271Z" fill="#FFFFFF" fill-rule="evenodd"/><path d="M2734.5 584 2669.47 587.629 2604.45 595.038 2539.26 613.485 2478.15 632.083 2420.65 661.567 2367.06 691.052 2317.39 728.097 2271.48 768.619 2229.33 812.922 2191.09 861.004 2160.54 912.716 2129.83 968.056 2110.71 1027.18 2091.6 1089.93 2083.92 1152.68 2080.16 1215.42 2083.92 1278.32 2091.6 1341.07 2110.71 1403.82 2129.83 1462.94 2160.54 1518.28 2191.09 1570 2229.33 1618.08 2271.48 1662.38 2317.39 1702.9 2367.06 1739.8 2420.65 1769.43 2478.15 1798.92 2539.26 1817.36 2604.45 1835.81 2669.47 1843.22 2734.5 1847 2799.53 1843.22 2864.55 1835.81 2929.74 1817.36 2990.85 1798.92 3048.35 1769.43 3101.94 1739.8 3151.61 1702.9 3197.52 1662.38 3239.67 1618.08 3277.91 1570 3308.46 1518.28 3339.17 1462.94 3358.29 1403.82 3377.4 1341.07 3385.08 1278.32 3388.84 1215.42 3385.08 1149.05 3373.64 1082.52 3354.53 1115.78 3335.25 1141.64 3308.46 1167.49 3277.91 1189.57 3243.43 1208.17 3208.96 1219.2 3170.73 1226.61 3132.5 1230.24 3105.7 1230.24 3078.91 1226.61 3052.11 1219.2 3029.24 1211.8 3002.44 1200.76 2983.17 1185.94 2960.29 1171.12 2941.18 1156.46 2925.82 1138.01 2910.46 1115.78 2895.27 1097.33 2883.67 1071.48 2876.15 1049.25 2868.47 1023.4 2864.55 997.541 2864.55 971.685 2864.55 945.98 2868.47 920.125 2876.15 894.269 2883.67 872.042 2895.27 849.966 2910.46 827.74 2925.82 809.293 2941.18 790.846 2960.29 772.399 2983.17 757.581 3002.44 746.543 3025.32 735.354 3052.11 724.317 3078.91 716.908 3101.94 713.279 3132.5 713.279 3090.35 683.643 3044.44 657.938 2994.76 635.712 2948.85 617.265 2895.27 602.447 2845.44 591.409 2788.09 587.629 2734.5 584Z" fill="#FFFFFF" fill-rule="evenodd"/></g></svg>